<?xml version="1.0" encoding="UTF-8"?>
<svg id="Layer_1" data-name="Layer 1" xmlns="http://www.w3.org/2000/svg" viewBox="0 0 1984.79 521.62">
  <defs>
    <style>
      .cls-1 {
        fill: #7a8289;
      }

      .cls-2 {
        fill: #0a1600;
      }
    </style>
  </defs>
  <path class="cls-1" d="M864.53,269.34c-7.87-17.94-19.44-32.03-34.72-42.27-15.29-10.23-34.2-15.34-56.74-15.34s-41.91,5.13-58.07,15.37c-16.17,10.24-28.47,23.82-36.92,40.73-8.45,16.91-12.67,35.16-12.67,54.74,0,21.96,4.61,41.38,13.81,58.29,9.2,16.91,22.4,30.11,39.62,39.59,17.2,9.49,37.68,14.23,61.41,14.22,18.09,0,33.37-2.09,45.83-6.24,12.46-4.15,22.47-8.61,30.03-13.36,7.56-4.74,12.83-8.16,15.79-10.24l-26.27-40.49c-4.75,3.56-12.31,7.79-22.69,12.69-10.39,4.9-23.88,7.35-40.49,7.35s-29.82-4.29-39.61-12.89c-9.79-8.6-14.84-18.39-15.14-29.37l148.63-.04v-10.68h.01c0-23.42-3.95-44.11-11.81-62.06ZM727.7,301.19c0-5.93,1.7-11.93,5.11-18.01,3.41-6.08,8.45-11.2,15.13-15.36,6.67-4.15,14.91-6.23,24.7-6.24,9.79,0,17.87,2.07,24.25,6.22,6.38,4.16,11.13,9.27,14.24,15.35,3.12,6.08,4.68,12.09,4.68,18.02l-88.11.02ZM1539.14,266.71c-9.35-16.91-22.41-30.32-39.17-40.26-16.76-9.93-36.27-14.9-58.52-14.89-22.25,0-41.76,4.98-58.51,14.92-16.76,9.95-29.89,23.37-39.37,40.28-9.5,16.92-14.23,35.61-14.23,56.08s4.75,39.16,14.26,56.06c9.49,16.91,22.62,30.41,39.39,40.49,16.76,10.08,36.27,15.12,58.52,15.11,22.25,0,41.75-5.06,58.52-15.14,16.75-10.09,29.8-23.6,39.15-40.51,9.34-16.91,14-35.6,14-56.07-.01-20.47-4.69-39.16-14.04-56.07ZM1485.54,349.94c-3.85,8.61-9.41,15.58-16.68,20.92-7.27,5.34-16.39,8.01-27.36,8.02-10.68,0-19.81-2.67-27.37-8.01-7.57-5.33-13.29-12.3-17.14-20.91-3.86-8.6-5.79-17.64-5.79-27.14-.01-9.49,1.92-18.47,5.78-26.92,3.84-8.46,9.56-15.36,17.12-20.7,7.57-5.34,16.69-8.02,27.37-8.02s20.09,2.67,27.37,8c7.26,5.34,12.83,12.24,16.69,20.69,3.85,8.46,5.79,17.43,5.79,26.92.01,9.5-1.93,18.55-5.78,27.15ZM405.96,298.61l.04,129.05-64.08.02-.04-120.15c0-11.57-2.9-20.76-8.68-27.59-5.79-6.82-13.88-10.23-24.26-10.23-13.95,0-24.55,4.61-31.81,13.81-7.27,9.2-10.9,19.88-10.9,32.04l.04,112.14-63.64.02-.06-208.71h61.41l1.79,22.68c6.82-8.3,15.86-14.98,27.14-20.03,11.27-5.05,22.84-7.57,34.71-7.58,23.73,0,42.72,7.11,56.96,21.35,14.25,14.23,21.37,35.3,21.38,63.18h0ZM1297.76,371.8l25.82,39.15c-19.88,16.02-41.82,24.04-65.85,24.05-19.88,0-35.61-3.71-47.18-11.12-11.57-7.41-19.8-17.64-24.7-30.69-4.9-13.05-7.35-28.18-7.36-45.39l-.02-78.77h-32.93v-50.27s32.92,0,32.92,0l-.02-68.54,64.08-.02.02,68.53h53.84l.02,50.27-53.85.02.02,82.32c.01,10.09,2.01,17.88,6.02,23.36,4,5.49,10.3,8.23,18.91,8.23,6.52,0,12.16-1.12,16.91-3.34,4.74-2.23,9.19-4.82,13.35-7.79ZM1727.36,215.48c4,.6,7.93,1.64,11.79,3.12l-10.22,56.51c-6.53-2.07-14.24-3.11-23.14-3.11-15.13,0-27.36,4.54-36.71,13.59-9.34,9.05-14.01,21.88-14,38.49l.02,103.24-64.08.02-.05-208.7,61.41-.02,2.23,26.25c5.34-7.12,12.68-13.94,22.02-20.47,9.35-6.53,21.43-9.8,36.27-9.8,5.63,0,10.45.29,14.46.88h0ZM1984.79,218.53l-85.39,207.39c-4.74,11.57-9.49,22.99-14.23,34.27-4.74,11.27-10.3,21.59-16.67,30.93-6.39,9.35-14.46,16.76-24.25,22.26-9.79,5.49-21.96,8.24-36.49,8.24-11.28.01-21.51-1.48-30.71-4.44-9.2-2.97-17.65-7.27-25.36-12.9l25.79-44.06c3.56,2.67,7.57,5.04,12.02,7.12,4.45,2.07,9.05,3.11,13.8,3.11,6.82,0,12.6-2.16,17.35-6.46,4.74-4.3,9.04-11.65,12.9-22.03l6.22-16.91-95.28-206.46,72.98-.02,52.1,131.71,47.13-131.73,68.09-.02h0ZM590.17,218.91l69.87-.02-89.39,208.73h-60.52l-88.17-208.67,71.2-.02,49.43,137.05,47.58-137.07h0ZM1116.63,298.42l.03,129.05-64.08.02-.03-120.15c0-11.57-2.9-20.76-8.69-27.59-5.78-6.82-13.87-10.23-24.25-10.23-13.95,0-24.55,4.61-31.82,13.8-7.27,9.21-10.89,19.89-10.89,32.05l.03,112.14h-63.63l-.06-208.69,61.41-.02,1.78,22.7c6.82-8.31,15.87-14.98,27.14-20.03s22.84-7.58,34.71-7.58c23.73,0,42.72,7.11,56.97,21.35,14.24,14.23,21.37,35.3,21.38,63.18h0Z"/>
  <path class="cls-2" d="M116.31,0C52.18,0,0,52.18,0,116.31s52.18,116.31,116.31,116.31,116.31-52.18,116.31-116.31S180.44,0,116.31,0ZM116.31,190.44c-40.89,0-74.14-33.25-74.14-74.14S75.42,42.17,116.31,42.17s74.14,33.26,74.14,74.14-33.26,74.14-74.14,74.14ZM169.08,116.14c0,3.44-2.79,6.22-6.22,6.22s-6.22-2.79-6.22-6.22c0-24.77-20.15-44.93-44.93-44.93-3.44,0-6.22-2.79-6.22-6.22s2.78-6.22,6.22-6.22c31.63,0,57.37,25.74,57.37,57.37ZM162.86,128.36c-6.74,0-12.22-5.48-12.22-12.22,0-21.47-17.46-38.93-38.93-38.93-6.74,0-12.22-5.48-12.22-12.22s5.48-12.22,12.22-12.22c34.94,0,63.37,28.43,63.37,63.37,0,6.74-5.48,12.22-12.22,12.22ZM111.71,64.77c-.12,0-.22.1-.22.22s.1.22.22.22c28.08,0,50.93,22.85,50.93,50.93,0,.24.44.24.44,0,0-28.33-23.04-51.37-51.37-51.37ZM115.81,242.89c12.01,0,23.48-2.23,34-6.28v191.11h-67v-190.73c10.24,3.81,21.37,5.9,33,5.9Z"/>
</svg>