<?xml version="1.0" encoding="UTF-8"?>
<svg id="Layer_1" data-name="Layer 1" xmlns="http://www.w3.org/2000/svg" viewBox="0 0 750 750">
  <defs>
    <style>
      .cls-1 {
        fill: #fff;
      }

      .cls-2 {
        fill: #0a1600;
      }
    </style>
  </defs>
  <path class="cls-2" d="M750,375c0,176.1-121.38,323.86-285.06,364.13-9.44,2.32-19.01,4.29-28.71,5.88-1,.17-2,.33-3,.49-18.97,2.96-38.42,4.5-58.23,4.5s-40.86-1.67-60.57-4.88c-1-.15-2-.32-3-.49-8.24-1.41-16.39-3.08-24.44-5.02C122.35,700.02,0,551.8,0,375,0,167.89,167.89,0,375,0s375,167.89,375,375Z"/>
  <g>
    <path class="cls-1" d="M516.62,347.81c0,9.15-7.42,16.51-16.51,16.51s-16.51-7.42-16.51-16.51c0-65.83-53.54-119.37-119.37-119.37-9.15,0-16.51-7.42-16.51-16.51s7.42-16.51,16.51-16.51c84.02,0,152.39,68.37,152.39,152.4Z"/>
    <path class="cls-1" d="M464.94,603.38v135.75c-9.44,2.32-19.01,4.29-28.71,5.88-1,.17-2,.33-3,.49-18.97,2.96-38.42,4.5-58.23,4.5s-40.86-1.67-60.57-4.88c-1-.15-2-.32-3-.49-8.24-1.41-16.39-3.08-24.44-5.02v-135.21c27.17,10.46,56.79,16.19,87.64,16.19s62.37-6.11,90.31-17.21Z"/>
    <path class="cls-1" d="M375.48,69.94c-145.89,0-264.61,118.72-264.61,264.61s118.72,264.62,264.61,264.62,264.62-118.72,264.62-264.62S521.38,69.94,375.48,69.94ZM375.48,503.24c-93.01,0-168.69-75.62-168.69-168.69s75.63-168.68,168.69-168.68,168.69,75.68,168.69,168.68-75.68,168.69-168.69,168.69Z"/>
  </g>
</svg>