<svg xmlns="http://www.w3.org/2000/svg" viewBox="0 0 750 750">
  <defs>
    <style>
      .cls-1 {
        fill: #fff;
      }

      .cls-2 {
        fill: #0a1600;
      }
    </style>
  </defs>
  <path class="cls-2" d="M750,375c0,186.25-135.78,340.8-313.77,370.01-1,.17-2,.33-3,.49-18.97,2.96-38.42,4.5-58.23,4.5s-40.86-1.67-60.57-4.88c-1-.15-2-.32-3-.49C134.6,714.44,0,560.44,0,375,0,167.89,167.89,0,375,0s375,167.89,375,375Z"/>
  <g>
    <path class="cls-1" d="M471.6,337.41c0,6.26-5.08,11.3-11.3,11.3s-11.3-5.08-11.3-11.3c0-45.06-36.65-81.71-81.7-81.71-6.26,0-11.3-5.08-11.3-11.3s5.08-11.3,11.3-11.3c57.51,0,104.31,46.8,104.31,104.31Z"/>
    <path class="cls-1" d="M436.23,512.33v232.68c-1,.17-2,.33-3,.49-18.97,2.96-38.42,4.5-58.23,4.5s-40.86-1.67-60.57-4.88v-232.09c18.6,7.16,38.87,11.08,59.99,11.08s42.69-4.18,61.81-11.78Z"/>
    <path class="cls-1" d="M375,152.21c-99.86,0-181.12,81.26-181.12,181.12s81.26,181.12,181.12,181.12,181.12-81.26,181.12-181.12-81.26-181.12-181.12-181.12ZM375,448.79c-63.66,0-115.46-51.76-115.46-115.46s51.76-115.46,115.46-115.46,115.46,51.8,115.46,115.46-51.8,115.46-115.46,115.46Z"/>
  </g>
</svg>
